<mxfile host="app.diagrams.net" modified="2023-08-30T08:00:25.872Z" agent="Mozilla/5.0 (Windows NT 10.0; Win64; x64) AppleWebKit/537.36 (KHTML, like Gecko) Chrome/116.0.0.0 Safari/537.36" etag="FMso5_X4KpzjAkLpMaz4" version="21.6.9" type="github">
  <diagram name="Page-1" id="rjGy5YyPrBwTc-FCCKnh">
    <mxGraphModel dx="1120" dy="484" grid="1" gridSize="10" guides="1" tooltips="1" connect="1" arrows="1" fold="1" page="1" pageScale="1" pageWidth="850" pageHeight="1100" math="0" shadow="0">
      <root>
        <mxCell id="0" />
        <mxCell id="1" parent="0" />
        <mxCell id="gnQRgpkNDzssGDymNENJ-2" style="edgeStyle=orthogonalEdgeStyle;rounded=0;orthogonalLoop=1;jettySize=auto;html=1;" edge="1" parent="1" source="gnQRgpkNDzssGDymNENJ-1">
          <mxGeometry relative="1" as="geometry">
            <mxPoint x="358" y="200" as="targetPoint" />
          </mxGeometry>
        </mxCell>
        <mxCell id="gnQRgpkNDzssGDymNENJ-3" style="edgeStyle=orthogonalEdgeStyle;rounded=0;orthogonalLoop=1;jettySize=auto;html=1;" edge="1" parent="1" source="gnQRgpkNDzssGDymNENJ-1">
          <mxGeometry relative="1" as="geometry">
            <mxPoint x="158" y="200" as="targetPoint" />
          </mxGeometry>
        </mxCell>
        <mxCell id="gnQRgpkNDzssGDymNENJ-4" style="edgeStyle=orthogonalEdgeStyle;rounded=0;orthogonalLoop=1;jettySize=auto;html=1;" edge="1" parent="1" source="gnQRgpkNDzssGDymNENJ-1">
          <mxGeometry relative="1" as="geometry">
            <mxPoint x="558" y="200" as="targetPoint" />
          </mxGeometry>
        </mxCell>
        <mxCell id="gnQRgpkNDzssGDymNENJ-1" value="&lt;font style=&quot;font-size: 24px;&quot;&gt;&lt;b&gt;Student&lt;/b&gt;&lt;/font&gt;" style="whiteSpace=wrap;html=1;" vertex="1" parent="1">
          <mxGeometry x="278" y="40" width="160" height="60" as="geometry" />
        </mxCell>
        <mxCell id="gnQRgpkNDzssGDymNENJ-9" style="edgeStyle=orthogonalEdgeStyle;rounded=0;orthogonalLoop=1;jettySize=auto;html=1;" edge="1" parent="1" source="gnQRgpkNDzssGDymNENJ-5">
          <mxGeometry relative="1" as="geometry">
            <mxPoint x="158" y="320" as="targetPoint" />
          </mxGeometry>
        </mxCell>
        <mxCell id="gnQRgpkNDzssGDymNENJ-5" value="APPLY FOR JOBS" style="rounded=1;whiteSpace=wrap;html=1;" vertex="1" parent="1">
          <mxGeometry x="98" y="200" width="120" height="30" as="geometry" />
        </mxCell>
        <mxCell id="gnQRgpkNDzssGDymNENJ-6" value="MANAGE PROFILE&amp;nbsp;" style="rounded=1;whiteSpace=wrap;html=1;" vertex="1" parent="1">
          <mxGeometry x="298" y="200" width="120" height="30" as="geometry" />
        </mxCell>
        <mxCell id="gnQRgpkNDzssGDymNENJ-19" style="edgeStyle=orthogonalEdgeStyle;rounded=0;orthogonalLoop=1;jettySize=auto;html=1;entryX=0.438;entryY=-0.033;entryDx=0;entryDy=0;entryPerimeter=0;" edge="1" parent="1" source="gnQRgpkNDzssGDymNENJ-7" target="gnQRgpkNDzssGDymNENJ-17">
          <mxGeometry relative="1" as="geometry" />
        </mxCell>
        <mxCell id="gnQRgpkNDzssGDymNENJ-7" value="UPLOAD RESUME" style="rounded=1;whiteSpace=wrap;html=1;" vertex="1" parent="1">
          <mxGeometry x="503" y="200" width="120" height="30" as="geometry" />
        </mxCell>
        <mxCell id="gnQRgpkNDzssGDymNENJ-11" value="APPLICATION STATUS" style="rounded=1;whiteSpace=wrap;html=1;" vertex="1" parent="1">
          <mxGeometry x="80" y="320" width="150" height="30" as="geometry" />
        </mxCell>
        <mxCell id="gnQRgpkNDzssGDymNENJ-17" value="DOWNLOAD RESUME" style="rounded=1;whiteSpace=wrap;html=1;" vertex="1" parent="1">
          <mxGeometry x="503" y="310" width="137" height="30" as="geometry" />
        </mxCell>
      </root>
    </mxGraphModel>
  </diagram>
</mxfile>
